Coordinates
version=1
nRows=13
nColumns=38
inDegrees=no

Units are S.I. units (second, meters, Newtons, ...)
If the header above contains a line with 'inDegrees', this indicates whether rotational values are in degrees (yes) or radians (no).

endheader
time	pelvis_tilt	pelvis_list	pelvis_rotation	pelvis_tx	pelvis_ty	pelvis_tz	hip_flexion_r	hip_adduction_r	hip_rotation_r	knee_angle_r	ankle_angle_r	subtalar_angle_r	mtp_angle_r	hip_flexion_l	hip_adduction_l	hip_rotation_l	knee_angle_l	ankle_angle_l	subtalar_angle_l	mtp_angle_l	lumbar_extension	lumbar_bending	lumbar_rotation	arm_flex_r	arm_add_r	arm_rot_r	elbow_flex_r	pro_sup_r	wrist_flex_r	wrist_dev_r	arm_flex_l	arm_add_l	arm_rot_l	elbow_flex_l	pro_sup_l	wrist_flex_l	wrist_dev_l
0.54	0.105922	1.37859	-1.53304	0.451417	0.936908	1.07759	0.0644185	0.00472088	-0.0644052	0.586309	-0.266863	0	0	-0.158911	-0.208904	-0.259972	1.10864	-0.380411	0	0	-0.511744	0.0241771	0.120402	0.306312	-0.493262	1.20491	0.605564	0.482303	0	0	0.224862	-0.266715	0.639518	0.451593	0.866018	0	0
0.55	0.112791	1.37056	-1.53945	0.452017	0.926709	1.08065	0.0366597	0.00195195	-0.079173	0.574195	-0.268053	0	0	-0.140495	-0.20909	-0.259144	1.12934	-0.357896	0	0	-0.521042	0.0230041	0.123893	0.308551	-0.498029	1.20434	0.61178	0.477417	0	0	0.229002	-0.267258	0.640946	0.456053	0.868034	0	0
0.56	0.119879	1.36349	-1.54827	0.452328	0.916599	1.08347	0.00996289	-0.0010754	-0.0931103	0.561999	-0.268997	0	0	-0.12242	-0.208794	-0.260635	1.14435	-0.339347	0	0	-0.529565	0.0204711	0.129103	0.310877	-0.502451	1.2035	0.617311	0.472786	0	0	0.23296	-0.267596	0.640916	0.460541	0.870501	0	0
0.57	0.126695	1.35795	-1.55768	0.452634	0.906368	1.08605	-0.0158858	-0.00418244	-0.106721	0.548408	-0.269794	0	0	-0.104165	-0.208941	-0.264019	1.15364	-0.325428	0	0	-0.536146	0.0175247	0.134724	0.312891	-0.505884	1.20289	0.621011	0.469298	0	0	0.236632	-0.267417	0.640209	0.463945	0.873264	0	0
0.58	0.134429	1.35486	-1.56736	0.453158	0.895753	1.08819	-0.0393222	-0.00747339	-0.121641	0.534395	-0.270634	0	0	-0.0842319	-0.210861	-0.270691	1.15857	-0.315265	0	0	-0.539083	0.0146792	0.139382	0.313653	-0.507978	1.20226	0.622752	0.466977	0	0	0.239425	-0.266889	0.639273	0.465777	0.875993	0	0
0.59	0.134103	1.35299	-1.56994	0.453714	0.884703	1.08969	-0.0611737	-0.00880113	-0.137172	0.52136	-0.270809	0	0	-0.0637983	-0.224185	-0.294806	1.16394	-0.311198	0	0	-0.538739	0.0133482	0.145122	0.312861	-0.5104	1.20196	0.624838	0.464821	0	0	0.240533	-0.266203	0.638644	0.467647	0.878312	0	0
0.6	0.146001	1.35334	-1.58472	0.454113	0.873992	1.09117	-0.0794373	-0.0129551	-0.152507	0.509018	-0.272367	0	0	-0.0435812	-0.224179	-0.302188	1.15619	-0.303871	0	0	-0.538293	0.00871167	0.149654	0.313221	-0.510484	1.20121	0.624234	0.462612	0	0	0.243497	-0.265884	0.638449	0.46847	0.881134	0	0
0.61	0.158602	1.35471	-1.6009	0.454487	0.863255	1.09235	-0.0958849	-0.017121	-0.166516	0.497264	-0.27418	0	0	-0.023803	-0.224053	-0.31131	1.14324	-0.297283	0	0	-0.536972	0.00357255	0.154269	0.313721	-0.509589	1.20059	0.62211	0.460589	0	0	0.246267	-0.265412	0.637893	0.468645	0.8839	0	0
0.62	0.171652	1.35654	-1.61807	0.454871	0.852525	1.09325	-0.110842	-0.0211532	-0.178057	0.486973	-0.275137	0	0	-0.00459022	-0.224268	-0.322794	1.12651	-0.292993	0	0	-0.535501	-0.00180468	0.158617	0.314515	-0.508536	1.20025	0.619897	0.458928	0	0	0.248651	-0.265032	0.637069	0.468435	0.885633	0	0
0.63	0.195824	1.36004	-1.64574	0.455214	0.842252	1.09409	-0.122003	-0.0271113	-0.18542	0.478741	-0.275836	0	0	0.0156129	-0.212062	-0.317741	1.09962	-0.286451	0	0	-0.534552	-0.00971837	0.161424	0.316783	-0.505723	1.19995	0.615512	0.457939	0	0	0.252776	-0.264852	0.636318	0.466955	0.887894	0	0
0.64	0.221819	1.36456	-1.67504	0.455706	0.832082	1.09455	-0.130418	-0.0332131	-0.190473	0.472939	-0.27555	0	0	0.0362613	-0.199061	-0.312487	1.06928	-0.281041	0	0	-0.532716	-0.0176124	0.163503	0.319414	-0.502355	1.20001	0.610237	0.457931	0	0	0.256564	-0.264587	0.635042	0.465126	0.89053	0	0
0.65	0.248271	1.36985	-1.70458	0.456318	0.822081	1.09464	-0.136401	-0.0390719	-0.1941	0.469126	-0.274363	0	0	0.0572527	-0.186514	-0.307774	1.03684	-0.277184	0	0	-0.530234	-0.0250697	0.165065	0.322419	-0.499003	1.20043	0.605039	0.458724	0	0	0.260005	-0.264313	0.633052	0.463668	0.893217	0	0
0.66	0.274027	1.37573	-1.73322	0.457049	0.812264	1.09441	-0.140367	-0.0443563	-0.196745	0.466745	-0.272835	0	0	0.0785131	-0.174613	-0.303186	1.00343	-0.273791	0	0	-0.527224	-0.0316977	0.166255	0.325698	-0.496075	1.2008	0.600492	0.459596	0	0	0.263175	-0.264125	0.630727	0.462756	0.895904	0	0
